STARTFONT 2.1
FONT -Monotype-Arial Narrow-Regular-R-Normal--17-120-100-100-P-60-iso8859-9
SIZE 12 100 100
FONTBOUNDINGBOX 17 21 -3 -5

STARTPROPERTIES 24
FOUNDRY "Monotype"
FAMILY_NAME "Arial Narrow"
WEIGHT_NAME "Regular"
SLANT "R"
SETWIDTH_NAME "Normal"
ADD_STYLE_NAME ""
PIXEL_SIZE 17
POINT_SIZE 120
RESOLUTION_X 100
RESOLUTION_Y 100
SPACING "P"
AVERAGE_WIDTH 60
CHARSET_REGISTRY "iso8859"
CHARSET_ENCODING "9"
FACE_NAME "Arial Narrow ISO Latin5"
_DEC_DEVICE_FONTNAMES "PS=arialnarrow-lat5"
COPYRIGHT "Copyright (c) 1994 Monotype Typography Ltd."
CAP_HEIGHT 15
X_HEIGHT 10
WEIGHT 10
QUAD_WIDTH 8
DEFAULT_CHAR 160
FONT_DESCENT 5
FONT_ASCENT 16
ENDPROPERTIES

CHARS 191

STARTCHAR space
ENCODING 32
SWIDTH 228 0
DWIDTH 4 0
BBX 0 0 0 0
BITMAP
ENDCHAR

STARTCHAR exclam
ENCODING 33
SWIDTH 228 0
DWIDTH 3 0
BBX 1 12 1 0
BITMAP
80
80
80
80
80
80
80
80
80
00
80
80
ENDCHAR

STARTCHAR quotedbl
ENCODING 34
SWIDTH 291 0
DWIDTH 5 0
BBX 3 5 1 7
BITMAP
A0
A0
A0
A0
A0
ENDCHAR

STARTCHAR numbersign
ENCODING 35
SWIDTH 456 0
DWIDTH 8 0
BBX 8 13 0 0
BITMAP
12
12
12
24
FF
24
24
24
FF
48
48
48
48
ENDCHAR

STARTCHAR dollar
ENCODING 36
SWIDTH 456 0
DWIDTH 8 0
BBX 6 16 1 -2
BITMAP
20
78
A4
A4
A0
A0
A0
78
24
24
A4
A4
A4
78
20
20
ENDCHAR

STARTCHAR percent
ENCODING 37
SWIDTH 729 0
DWIDTH 12 0
BBX 10 12 1 0
BITMAP
6100
9100
9200
9200
9400
6400
0980
0A40
1240
1240
2240
2180
ENDCHAR

STARTCHAR ampersand
ENCODING 38
SWIDTH 547 0
DWIDTH 9 0
BBX 8 12 1 0
BITMAP
10
28
44
44
28
30
48
85
82
82
46
39
ENDCHAR

STARTCHAR quoteright
ENCODING 39
SWIDTH 182 0
DWIDTH 3 0
BBX 2 4 1 8
BITMAP
C0
40
40
80
ENDCHAR

STARTCHAR parenleft
ENCODING 40
SWIDTH 273 0
DWIDTH 5 0
BBX 3 15 1 -3
BITMAP
20
20
40
40
80
80
80
80
80
80
80
40
40
20
20
ENDCHAR

STARTCHAR parenright
ENCODING 41
SWIDTH 273 0
DWIDTH 5 0
BBX 3 15 1 -3
BITMAP
80
80
40
40
20
20
20
20
20
20
20
40
40
80
80
ENDCHAR

STARTCHAR asterisk
ENCODING 42
SWIDTH 319 0
DWIDTH 5 0
BBX 5 5 0 7
BITMAP
20
20
F8
20
50
ENDCHAR

STARTCHAR plus
ENCODING 43
SWIDTH 479 0
DWIDTH 8 0
BBX 7 7 1 3
BITMAP
10
10
10
FE
10
10
10
ENDCHAR

STARTCHAR comma
ENCODING 44
SWIDTH 228 0
DWIDTH 4 0
BBX 2 5 1 -3
BITMAP
C0
C0
40
40
80
ENDCHAR

STARTCHAR minus
ENCODING 45
SWIDTH 479 0
DWIDTH 8 0
BBX 6 1 1 6
BITMAP
FC
ENDCHAR

STARTCHAR period
ENCODING 46
SWIDTH 228 0
DWIDTH 4 0
BBX 1 2 1 0
BITMAP
80
80
ENDCHAR

STARTCHAR slash
ENCODING 47
SWIDTH 228 0
DWIDTH 4 0
BBX 4 13 0 -1
BITMAP
10
10
10
20
20
20
40
40
40
40
80
80
80
ENDCHAR

STARTCHAR zero
ENCODING 48
SWIDTH 456 0
DWIDTH 8 0
BBX 6 12 1 0
BITMAP
30
48
84
84
84
84
84
84
84
84
48
30
ENDCHAR

STARTCHAR one
ENCODING 49
SWIDTH 456 0
DWIDTH 8 0
BBX 4 12 2 0
BITMAP
10
30
50
90
10
10
10
10
10
10
10
10
ENDCHAR

STARTCHAR two
ENCODING 50
SWIDTH 456 0
DWIDTH 8 0
BBX 6 12 1 0
BITMAP
30
48
84
84
04
04
08
10
20
40
80
FC
ENDCHAR

STARTCHAR three
ENCODING 51
SWIDTH 456 0
DWIDTH 8 0
BBX 6 12 1 0
BITMAP
30
48
84
04
08
10
08
04
84
84
48
30
ENDCHAR

STARTCHAR four
ENCODING 52
SWIDTH 456 0
DWIDTH 8 0
BBX 6 12 1 0
BITMAP
08
18
18
28
28
48
88
88
FC
08
08
08
ENDCHAR

STARTCHAR five
ENCODING 53
SWIDTH 456 0
DWIDTH 8 0
BBX 6 12 1 0
BITMAP
7C
40
40
80
F8
84
04
04
04
84
88
70
ENDCHAR

STARTCHAR six
ENCODING 54
SWIDTH 456 0
DWIDTH 8 0
BBX 6 12 1 0
BITMAP
38
44
84
80
B0
C8
84
84
84
84
48
30
ENDCHAR

STARTCHAR seven
ENCODING 55
SWIDTH 456 0
DWIDTH 8 0
BBX 6 12 1 0
BITMAP
FC
04
08
08
10
10
20
20
20
40
40
40
ENDCHAR

STARTCHAR eight
ENCODING 56
SWIDTH 456 0
DWIDTH 8 0
BBX 6 12 1 0
BITMAP
30
48
84
84
48
30
48
84
84
84
48
30
ENDCHAR

STARTCHAR nine
ENCODING 57
SWIDTH 456 0
DWIDTH 8 0
BBX 6 12 1 0
BITMAP
30
48
84
84
84
84
4C
34
04
84
88
70
ENDCHAR

STARTCHAR colon
ENCODING 58
SWIDTH 228 0
DWIDTH 4 0
BBX 1 9 2 0
BITMAP
80
80
00
00
00
00
00
80
80
ENDCHAR

STARTCHAR semicolon
ENCODING 59
SWIDTH 228 0
DWIDTH 4 0
BBX 2 12 1 -3
BITMAP
80
80
00
00
00
00
00
C0
C0
40
40
80
ENDCHAR

STARTCHAR less
ENCODING 60
SWIDTH 479 0
DWIDTH 8 0
BBX 7 8 0 2
BITMAP
02
0C
30
C0
C0
30
0C
02
ENDCHAR

STARTCHAR equal
ENCODING 61
SWIDTH 479 0
DWIDTH 8 0
BBX 6 5 1 4
BITMAP
FC
00
00
00
FC
ENDCHAR

STARTCHAR greater
ENCODING 62
SWIDTH 479 0
DWIDTH 8 0
BBX 7 8 1 2
BITMAP
80
60
18
06
06
18
60
80
ENDCHAR

STARTCHAR question
ENCODING 63
SWIDTH 456 0
DWIDTH 8 0
BBX 6 12 1 0
BITMAP
78
84
84
04
08
10
20
20
20
00
20
20
ENDCHAR

STARTCHAR at
ENCODING 64
SWIDTH 832 0
DWIDTH 14 0
BBX 13 16 1 -4
BITMAP
0FC0
3030
2010
4748
4DC8
98C8
9088
9088
9088
9190
9990
4EE0
4008
2010
3030
0FC0
ENDCHAR

STARTCHAR A
ENCODING 65
SWIDTH 547 0
DWIDTH 9 0
BBX 9 12 0 0
BITMAP
0800
0800
1400
1400
2200
2200
2200
7F00
4100
4100
8080
8080
ENDCHAR

STARTCHAR B
ENCODING 66
SWIDTH 547 0
DWIDTH 9 0
BBX 7 12 1 0
BITMAP
FC
82
82
82
82
FC
82
82
82
82
82
FC
ENDCHAR

STARTCHAR C
ENCODING 67
SWIDTH 592 0
DWIDTH 10 0
BBX 8 12 1 0
BITMAP
1C
62
41
80
80
80
80
80
80
41
62
1C
ENDCHAR

STARTCHAR D
ENCODING 68
SWIDTH 592 0
DWIDTH 10 0
BBX 8 12 1 0
BITMAP
F8
86
82
81
81
81
81
81
81
82
86
F8
ENDCHAR

STARTCHAR E
ENCODING 69
SWIDTH 547 0
DWIDTH 9 0
BBX 7 12 1 0
BITMAP
FE
80
80
80
80
FE
80
80
80
80
80
FE
ENDCHAR

STARTCHAR F
ENCODING 70
SWIDTH 501 0
DWIDTH 9 0
BBX 7 12 1 0
BITMAP
FE
80
80
80
80
FC
80
80
80
80
80
80
ENDCHAR

STARTCHAR G
ENCODING 71
SWIDTH 638 0
DWIDTH 11 0
BBX 9 12 1 0
BITMAP
1E00
6100
4080
8000
8000
8000
8780
8080
8080
4100
6300
1C00
ENDCHAR

STARTCHAR H
ENCODING 72
SWIDTH 592 0
DWIDTH 10 0
BBX 8 12 1 0
BITMAP
81
81
81
81
81
FF
81
81
81
81
81
81
ENDCHAR

STARTCHAR I
ENCODING 73
SWIDTH 228 0
DWIDTH 5 0
BBX 1 12 2 0
BITMAP
80
80
80
80
80
80
80
80
80
80
80
80
ENDCHAR

STARTCHAR J
ENCODING 74
SWIDTH 410 0
DWIDTH 7 0
BBX 5 12 1 0
BITMAP
08
08
08
08
08
08
08
08
88
88
88
70
ENDCHAR

STARTCHAR K
ENCODING 75
SWIDTH 547 0
DWIDTH 9 0
BBX 8 12 1 0
BITMAP
81
82
84
88
90
A0
D0
88
84
84
82
81
ENDCHAR

STARTCHAR L
ENCODING 76
SWIDTH 456 0
DWIDTH 8 0
BBX 6 12 1 0
BITMAP
80
80
80
80
80
80
80
80
80
80
80
FC
ENDCHAR

STARTCHAR M
ENCODING 77
SWIDTH 683 0
DWIDTH 11 0
BBX 9 12 1 0
BITMAP
8080
C180
C180
A280
A280
A280
A280
9480
9480
9480
8880
8880
ENDCHAR

STARTCHAR N
ENCODING 78
SWIDTH 592 0
DWIDTH 10 0
BBX 8 12 1 0
BITMAP
81
C1
C1
A1
A1
91
89
89
85
83
83
81
ENDCHAR

STARTCHAR O
ENCODING 79
SWIDTH 638 0
DWIDTH 11 0
BBX 9 12 1 0
BITMAP
1C00
6300
4100
8080
8080
8080
8080
8080
8080
4100
6300
1C00
ENDCHAR

STARTCHAR P
ENCODING 80
SWIDTH 547 0
DWIDTH 9 0
BBX 7 12 1 0
BITMAP
F8
84
82
82
82
84
F8
80
80
80
80
80
ENDCHAR

STARTCHAR Q
ENCODING 81
SWIDTH 638 0
DWIDTH 11 0
BBX 9 13 1 -1
BITMAP
1C00
6300
4100
8080
8080
8080
8080
8080
8080
4500
6300
1E80
0080
ENDCHAR

STARTCHAR R
ENCODING 82
SWIDTH 592 0
DWIDTH 10 0
BBX 9 12 1 0
BITMAP
FC00
8200
8100
8100
8200
FC00
8400
8200
8200
8100
8100
8080
ENDCHAR

STARTCHAR S
ENCODING 83
SWIDTH 547 0
DWIDTH 9 0
BBX 7 12 1 0
BITMAP
38
44
82
80
40
30
0C
02
82
82
44
38
ENDCHAR

STARTCHAR T
ENCODING 84
SWIDTH 501 0
DWIDTH 9 0
BBX 7 12 1 0
BITMAP
FE
10
10
10
10
10
10
10
10
10
10
10
ENDCHAR

STARTCHAR U
ENCODING 85
SWIDTH 592 0
DWIDTH 10 0
BBX 8 12 1 0
BITMAP
81
81
81
81
81
81
81
81
81
81
42
3C
ENDCHAR

STARTCHAR V
ENCODING 86
SWIDTH 547 0
DWIDTH 9 0
BBX 9 12 0 0
BITMAP
8080
8080
4100
4100
4100
2200
2200
2200
1400
1400
0800
0800
ENDCHAR

STARTCHAR W
ENCODING 87
SWIDTH 774 0
DWIDTH 13 0
BBX 13 12 0 0
BITMAP
8208
8208
4510
4510
4510
28A0
28A0
28A0
28A0
28A0
1040
1040
ENDCHAR

STARTCHAR X
ENCODING 88
SWIDTH 547 0
DWIDTH 8 0
BBX 8 12 0 0
BITMAP
81
42
42
24
18
18
18
24
42
42
81
81
ENDCHAR

STARTCHAR Y
ENCODING 89
SWIDTH 547 0
DWIDTH 9 0
BBX 9 12 0 0
BITMAP
8080
4100
4100
2200
2200
1400
0800
0800
0800
0800
0800
0800
ENDCHAR

STARTCHAR Z
ENCODING 90
SWIDTH 501 0
DWIDTH 10 0
BBX 8 12 1 0
BITMAP
7F
01
02
04
04
08
10
20
20
40
80
FF
ENDCHAR

STARTCHAR bracketleft
ENCODING 91
SWIDTH 228 0
DWIDTH 4 0
BBX 3 15 1 -3
BITMAP
E0
80
80
80
80
80
80
80
80
80
80
80
80
80
E0
ENDCHAR

STARTCHAR backslash
ENCODING 92
SWIDTH 228 0
DWIDTH 4 0
BBX 4 13 0 -1
BITMAP
80
80
80
40
40
40
40
20
20
20
10
10
10
ENDCHAR

STARTCHAR bracketright
ENCODING 93
SWIDTH 228 0
DWIDTH 4 0
BBX 3 15 0 -3
BITMAP
E0
20
20
20
20
20
20
20
20
20
20
20
20
20
E0
ENDCHAR

STARTCHAR asciicircum
ENCODING 94
SWIDTH 385 0
DWIDTH 7 0
BBX 6 7 1 5
BITMAP
10
10
28
28
48
48
84
ENDCHAR

STARTCHAR underscore
ENCODING 95
SWIDTH 456 0
DWIDTH 8 0
BBX 8 1 0 -2
BITMAP
FF
ENDCHAR

STARTCHAR quoteleft
ENCODING 96
SWIDTH 182 0
DWIDTH 3 0
BBX 2 4 1 8
BITMAP
40
80
80
C0
ENDCHAR

STARTCHAR a
ENCODING 97
SWIDTH 456 0
DWIDTH 8 0
BBX 7 9 1 0
BITMAP
78
84
84
04
7C
84
84
8C
76
ENDCHAR

STARTCHAR b
ENCODING 98
SWIDTH 456 0
DWIDTH 8 0
BBX 6 12 1 0
BITMAP
80
80
80
B8
C4
84
84
84
84
84
C4
B8
ENDCHAR

STARTCHAR c
ENCODING 99
SWIDTH 410 0
DWIDTH 7 0
BBX 5 9 1 0
BITMAP
70
88
88
80
80
80
88
88
70
ENDCHAR

STARTCHAR d
ENCODING 100
SWIDTH 456 0
DWIDTH 8 0
BBX 6 12 1 0
BITMAP
04
04
04
74
8C
84
84
84
84
84
8C
74
ENDCHAR

STARTCHAR e
ENCODING 101
SWIDTH 456 0
DWIDTH 8 0
BBX 6 9 1 0
BITMAP
78
84
84
84
FC
80
84
84
78
ENDCHAR

STARTCHAR f
ENCODING 102
SWIDTH 228 0
DWIDTH 4 0
BBX 4 12 0 0
BITMAP
30
40
40
F0
40
40
40
40
40
40
40
40
ENDCHAR

STARTCHAR g
ENCODING 103
SWIDTH 456 0
DWIDTH 8 0
BBX 6 12 1 -3
BITMAP
74
8C
84
84
84
84
84
8C
74
04
84
78
ENDCHAR

STARTCHAR h
ENCODING 104
SWIDTH 456 0
DWIDTH 8 0
BBX 6 12 1 0
BITMAP
80
80
80
B8
C4
84
84
84
84
84
84
84
ENDCHAR

STARTCHAR i
ENCODING 105
SWIDTH 182 0
DWIDTH 3 0
BBX 1 12 1 0
BITMAP
80
80
00
80
80
80
80
80
80
80
80
80
ENDCHAR

STARTCHAR j
ENCODING 106
SWIDTH 182 0
DWIDTH 3 0
BBX 3 15 -1 -3
BITMAP
20
20
00
20
20
20
20
20
20
20
20
20
20
20
C0
ENDCHAR

STARTCHAR k
ENCODING 107
SWIDTH 410 0
DWIDTH 7 0
BBX 6 12 1 0
BITMAP
80
80
80
84
88
90
A0
D0
90
88
88
84
ENDCHAR

STARTCHAR l
ENCODING 108
SWIDTH 182 0
DWIDTH 3 0
BBX 1 12 1 0
BITMAP
80
80
80
80
80
80
80
80
80
80
80
80
ENDCHAR

STARTCHAR m
ENCODING 109
SWIDTH 683 0
DWIDTH 11 0
BBX 9 9 1 0
BITMAP
B700
C880
8880
8880
8880
8880
8880
8880
8880
ENDCHAR

STARTCHAR n
ENCODING 110
SWIDTH 456 0
DWIDTH 8 0
BBX 6 9 1 0
BITMAP
B8
C4
84
84
84
84
84
84
84
ENDCHAR

STARTCHAR o
ENCODING 111
SWIDTH 456 0
DWIDTH 8 0
BBX 6 9 1 0
BITMAP
78
84
84
84
84
84
84
84
78
ENDCHAR

STARTCHAR p
ENCODING 112
SWIDTH 456 0
DWIDTH 8 0
BBX 6 12 1 -3
BITMAP
B8
C4
84
84
84
84
84
C4
B8
80
80
80
ENDCHAR

STARTCHAR q
ENCODING 113
SWIDTH 456 0
DWIDTH 8 0
BBX 6 12 1 -3
BITMAP
74
8C
84
84
84
84
84
8C
74
04
04
04
ENDCHAR

STARTCHAR r
ENCODING 114
SWIDTH 273 0
DWIDTH 5 0
BBX 4 9 1 0
BITMAP
B0
C0
80
80
80
80
80
80
80
ENDCHAR

STARTCHAR s
ENCODING 115
SWIDTH 410 0
DWIDTH 7 0
BBX 5 9 1 0
BITMAP
70
88
88
80
70
08
88
88
70
ENDCHAR

STARTCHAR t
ENCODING 116
SWIDTH 228 0
DWIDTH 4 0
BBX 4 12 0 0
BITMAP
40
40
40
E0
40
40
40
40
40
40
40
30
ENDCHAR

STARTCHAR u
ENCODING 117
SWIDTH 456 0
DWIDTH 8 0
BBX 6 9 1 0
BITMAP
84
84
84
84
84
84
84
8C
74
ENDCHAR

STARTCHAR v
ENCODING 118
SWIDTH 410 0
DWIDTH 7 0
BBX 7 9 0 0
BITMAP
82
82
44
44
44
28
28
10
10
ENDCHAR

STARTCHAR w
ENCODING 119
SWIDTH 592 0
DWIDTH 9 0
BBX 9 9 0 0
BITMAP
8880
8880
8880
5500
5500
5500
2200
2200
2200
ENDCHAR

STARTCHAR x
ENCODING 120
SWIDTH 410 0
DWIDTH 7 0
BBX 7 9 0 0
BITMAP
82
44
28
10
10
28
44
44
82
ENDCHAR

STARTCHAR y
ENCODING 121
SWIDTH 410 0
DWIDTH 7 0
BBX 7 12 0 -3
BITMAP
82
82
44
44
44
28
28
30
10
20
20
C0
ENDCHAR

STARTCHAR z
ENCODING 122
SWIDTH 410 0
DWIDTH 8 0
BBX 6 9 1 0
BITMAP
FC
04
08
10
20
20
40
80
FC
ENDCHAR

STARTCHAR braceleft
ENCODING 123
SWIDTH 274 0
DWIDTH 5 0
BBX 3 15 1 -3
BITMAP
20
40
40
40
40
40
40
80
40
40
40
40
40
40
20
ENDCHAR

STARTCHAR bar
ENCODING 124
SWIDTH 213 0
DWIDTH 4 0
BBX 1 17 2 -5
BITMAP
80
80
80
80
80
80
80
80
80
80
80
80
80
80
80
80
80
ENDCHAR

STARTCHAR braceright
ENCODING 125
SWIDTH 274 0
DWIDTH 5 0
BBX 3 15 1 -3
BITMAP
80
40
40
40
40
40
40
20
40
40
40
40
40
40
80
ENDCHAR

STARTCHAR asciitilde
ENCODING 126
SWIDTH 479 0
DWIDTH 8 0
BBX 7 3 1 4
BITMAP
72
FE
9C
ENDCHAR

STARTCHAR space
ENCODING 160
SWIDTH 228 0
DWIDTH 5 0
BBX 0 0 0 0
BITMAP
ENDCHAR

STARTCHAR exclamdown
ENCODING 161
SWIDTH 273 0
DWIDTH 5 0
BBX 1 12 2 -4
BITMAP
80
80
00
80
80
80
80
80
80
80
80
80
ENDCHAR

STARTCHAR cent
ENCODING 162
SWIDTH 456 0
DWIDTH 8 0
BBX 6 15 1 -3
BITMAP
08
08
08
38
54
94
90
90
A0
A4
64
38
20
40
40
ENDCHAR

STARTCHAR sterling
ENCODING 163
SWIDTH 456 0
DWIDTH 8 0
BBX 8 12 0 0
BITMAP
3C
42
42
40
20
F8
20
20
20
40
71
CE
ENDCHAR

STARTCHAR currency
ENCODING 164
SWIDTH 456 0
DWIDTH 8 0
BBX 8 9 0 2
BITMAP
81
5A
24
42
42
42
24
5A
81
ENDCHAR

STARTCHAR yen
ENCODING 165
SWIDTH 456 0
DWIDTH 8 0
BBX 7 12 1 0
BITMAP
82
82
44
44
28
28
FE
10
FE
10
10
10
ENDCHAR

STARTCHAR brokenbar
ENCODING 166
SWIDTH 213 0
DWIDTH 4 0
BBX 1 17 2 -5
BITMAP
80
80
80
80
80
80
80
00
00
00
80
80
80
80
80
80
80
ENDCHAR

STARTCHAR section
ENCODING 167
SWIDTH 456 0
DWIDTH 8 0
BBX 7 15 1 -3
BITMAP
3C
42
42
40
30
4C
82
82
82
64
18
04
84
84
78
ENDCHAR

STARTCHAR dieresis
ENCODING 168
SWIDTH 273 0
DWIDTH 5 0
BBX 4 2 1 10
BITMAP
90
90
ENDCHAR

STARTCHAR copyright
ENCODING 169
SWIDTH 604 0
DWIDTH 10 0
BBX 10 12 0 0
BITMAP
1E00
6180
4080
8C40
9240
A040
A040
A240
9240
4C80
6180
1E00
ENDCHAR

STARTCHAR ordfeminine
ENCODING 170
SWIDTH 303 0
DWIDTH 5 0
BBX 4 6 1 6
BITMAP
60
90
70
90
B0
D0
ENDCHAR

STARTCHAR guillemotleft
ENCODING 171
SWIDTH 456 0
DWIDTH 8 0
BBX 6 8 1 0
BITMAP
24
48
48
90
90
48
48
24
ENDCHAR

STARTCHAR logicalnot
ENCODING 172
SWIDTH 479 0
DWIDTH 8 0
BBX 6 5 1 3
BITMAP
FC
04
04
04
04
ENDCHAR

STARTCHAR hyphen
ENCODING 173
SWIDTH 273 0
DWIDTH 5 0
BBX 4 1 1 9
BITMAP
F0
ENDCHAR

STARTCHAR registered
ENCODING 174
SWIDTH 604 0
DWIDTH 10 0
BBX 10 12 0 0
BITMAP
1E00
6180
4080
9C40
9240
9240
9C40
9440
9240
5280
6180
1E00
ENDCHAR

STARTCHAR macron
ENCODING 175
SWIDTH 273 0
DWIDTH 5 0
BBX 4 1 1 10
BITMAP
F0
ENDCHAR

STARTCHAR degree
ENCODING 176
SWIDTH 328 0
DWIDTH 6 0
BBX 4 5 1 7
BITMAP
60
90
90
90
60
ENDCHAR

STARTCHAR plusminus
ENCODING 177
SWIDTH 479 0
DWIDTH 8 0
BBX 7 9 1 3
BITMAP
10
10
10
FE
10
10
10
00
FE
ENDCHAR

STARTCHAR twosuperior
ENCODING 178
SWIDTH 273 0
DWIDTH 5 0
BBX 4 6 1 6
BITMAP
60
90
10
20
40
F0
ENDCHAR

STARTCHAR threesuperior
ENCODING 179
SWIDTH 273 0
DWIDTH 5 0
BBX 4 6 1 6
BITMAP
70
90
20
10
90
60
ENDCHAR

STARTCHAR acute
ENCODING 180
SWIDTH 273 0
DWIDTH 5 0
BBX 2 2 2 10
BITMAP
40
80
ENDCHAR

STARTCHAR mu
ENCODING 181
SWIDTH 456 0
DWIDTH 8 0
BBX 6 12 1 -3
BITMAP
84
84
84
84
84
84
84
C4
B8
80
80
80
ENDCHAR

STARTCHAR paragraph
ENCODING 182
SWIDTH 440 0
DWIDTH 7 0
BBX 8 15 0 -3
BITMAP
7F
F2
F2
F2
F2
72
12
12
12
12
12
12
12
12
12
ENDCHAR

STARTCHAR periodcentered
ENCODING 183
SWIDTH 228 0
DWIDTH 4 0
BBX 1 2 2 5
BITMAP
80
80
ENDCHAR

STARTCHAR cedilla
ENCODING 184
SWIDTH 273 0
DWIDTH 5 0
BBX 4 3 1 -3
BITMAP
60
30
E0
ENDCHAR

STARTCHAR onesuperior
ENCODING 185
SWIDTH 273 0
DWIDTH 5 0
BBX 2 6 1 6
BITMAP
40
C0
40
40
40
40
ENDCHAR

STARTCHAR ordmasculine
ENCODING 186
SWIDTH 299 0
DWIDTH 5 0
BBX 4 6 1 6
BITMAP
60
90
90
90
90
60
ENDCHAR

STARTCHAR guillemotright
ENCODING 187
SWIDTH 456 0
DWIDTH 8 0
BBX 6 8 1 0
BITMAP
90
48
48
24
24
48
48
90
ENDCHAR

STARTCHAR onequarter
ENCODING 188
SWIDTH 684 0
DWIDTH 12 0
BBX 10 13 1 -1
BITMAP
4080
C100
4100
4200
4400
4400
0800
0880
1180
1280
23C0
2080
4080
ENDCHAR

STARTCHAR onehalf
ENCODING 189
SWIDTH 684 0
DWIDTH 12 0
BBX 10 13 1 -1
BITMAP
4080
C100
4100
4200
4400
4400
0800
0980
1240
1040
2080
2100
43C0
ENDCHAR

STARTCHAR threequarters
ENCODING 190
SWIDTH 684 0
DWIDTH 12 0
BBX 11 13 0 -1
BITMAP
7040
9080
2080
1100
9200
6200
0400
0440
08C0
0940
11E0
1040
2040
ENDCHAR

STARTCHAR questiondown
ENCODING 191
SWIDTH 501 0
DWIDTH 9 0
BBX 7 12 1 -3
BITMAP
10
10
00
10
10
10
20
40
80
82
44
38
ENDCHAR

STARTCHAR Agrave
ENCODING 192
SWIDTH 547 0
DWIDTH 9 0
BBX 9 15 0 0
BITMAP
1000
0800
0000
0800
0800
1400
1400
2200
2200
2200
7F00
4100
4100
8080
8080
ENDCHAR

STARTCHAR Aacute
ENCODING 193
SWIDTH 547 0
DWIDTH 9 0
BBX 9 15 0 0
BITMAP
0400
0800
0000
0800
0800
1400
1400
2200
2200
2200
7F00
4100
4100
8080
8080
ENDCHAR

STARTCHAR Acircumflex
ENCODING 194
SWIDTH 547 0
DWIDTH 9 0
BBX 9 15 0 0
BITMAP
0C00
1200
0000
0800
0800
1400
1400
2200
2200
2200
7F00
4100
4100
8080
8080
ENDCHAR

STARTCHAR Atilde
ENCODING 195
SWIDTH 547 0
DWIDTH 9 0
BBX 9 15 0 0
BITMAP
1A00
2C00
0000
0800
0800
1400
1400
2200
2200
2200
7F00
4100
4100
8080
8080
ENDCHAR

STARTCHAR Adieresis
ENCODING 196
SWIDTH 547 0
DWIDTH 9 0
BBX 9 15 0 0
BITMAP
2200
2200
0000
0800
0800
1400
1400
2200
2200
2200
7F00
4100
4100
8080
8080
ENDCHAR

STARTCHAR Aring
ENCODING 197
SWIDTH 547 0
DWIDTH 9 0
BBX 9 16 0 0
BITMAP
0800
1400
1400
0800
0800
0800
1400
1400
2200
2200
2200
7F00
4100
4100
8080
8080
ENDCHAR

STARTCHAR AE
ENCODING 198
SWIDTH 820 0
DWIDTH 14 0
BBX 12 12 1 0
BITMAP
0FF0
0A00
1200
1200
2200
23F0
2200
7E00
4200
4200
8200
83F0
ENDCHAR

STARTCHAR Ccedilla
ENCODING 199
SWIDTH 592 0
DWIDTH 10 0
BBX 8 16 1 -4
BITMAP
1C
62
41
80
80
80
80
80
80
41
62
1C
0C
02
02
0C
ENDCHAR

STARTCHAR Egrave
ENCODING 200
SWIDTH 547 0
DWIDTH 9 0
BBX 7 15 1 0
BITMAP
10
08
00
FE
80
80
80
80
FE
80
80
80
80
80
FE
ENDCHAR

STARTCHAR Eacute
ENCODING 201
SWIDTH 547 0
DWIDTH 9 0
BBX 7 15 1 0
BITMAP
08
10
00
FE
80
80
80
80
FE
80
80
80
80
80
FE
ENDCHAR

STARTCHAR Ecircumflex
ENCODING 202
SWIDTH 547 0
DWIDTH 9 0
BBX 7 15 1 0
BITMAP
18
24
00
FE
80
80
80
80
FE
80
80
80
80
80
FE
ENDCHAR

STARTCHAR Edieresis
ENCODING 203
SWIDTH 547 0
DWIDTH 9 0
BBX 7 15 1 0
BITMAP
24
24
00
FE
80
80
80
80
FE
80
80
80
80
80
FE
ENDCHAR

STARTCHAR Igrave
ENCODING 204
SWIDTH 228 0
DWIDTH 5 0
BBX 2 15 1 0
BITMAP
80
40
00
40
40
40
40
40
40
40
40
40
40
40
40
ENDCHAR

STARTCHAR Iacute
ENCODING 205
SWIDTH 228 0
DWIDTH 5 0
BBX 2 15 2 0
BITMAP
40
80
00
80
80
80
80
80
80
80
80
80
80
80
80
ENDCHAR

STARTCHAR Icircumflex
ENCODING 206
SWIDTH 228 0
DWIDTH 5 0
BBX 4 15 1 0
BITMAP
60
90
00
40
40
40
40
40
40
40
40
40
40
40
40
ENDCHAR

STARTCHAR Idieresis
ENCODING 207
SWIDTH 228 0
DWIDTH 5 0
BBX 3 15 1 0
BITMAP
A0
A0
00
40
40
40
40
40
40
40
40
40
40
40
40
ENDCHAR

STARTCHAR Gbreve
ENCODING 208
SWIDTH 638 0
DWIDTH 11 0
BBX 9 15 1 0
BITMAP
1200
0C00
0000
1E00
6100
4080
8000
8000
8000
8780
8080
8080
4100
6300
1C00
ENDCHAR

STARTCHAR Ntilde
ENCODING 209
SWIDTH 592 0
DWIDTH 10 0
BBX 8 15 1 0
BITMAP
1A
2C
00
81
C1
C1
A1
A1
91
89
89
85
83
83
81
ENDCHAR

STARTCHAR Ograve
ENCODING 210
SWIDTH 638 0
DWIDTH 11 0
BBX 9 15 1 0
BITMAP
1000
0800
0000
1C00
6300
4100
8080
8080
8080
8080
8080
8080
4100
6300
1C00
ENDCHAR

STARTCHAR Oacute
ENCODING 211
SWIDTH 638 0
DWIDTH 11 0
BBX 9 15 1 0
BITMAP
0400
0800
0000
1C00
6300
4100
8080
8080
8080
8080
8080
8080
4100
6300
1C00
ENDCHAR

STARTCHAR Ocircumflex
ENCODING 212
SWIDTH 638 0
DWIDTH 11 0
BBX 9 15 1 0
BITMAP
0C00
1200
0000
1C00
6300
4100
8080
8080
8080
8080
8080
8080
4100
6300
1C00
ENDCHAR

STARTCHAR Otilde
ENCODING 213
SWIDTH 638 0
DWIDTH 11 0
BBX 9 15 1 0
BITMAP
1A00
2C00
0000
1C00
6300
4100
8080
8080
8080
8080
8080
8080
4100
6300
1C00
ENDCHAR

STARTCHAR Odieresis
ENCODING 214
SWIDTH 638 0
DWIDTH 11 0
BBX 9 15 1 0
BITMAP
2200
2200
0000
1C00
6300
4100
8080
8080
8080
8080
8080
8080
4100
6300
1C00
ENDCHAR

STARTCHAR multiply
ENCODING 215
SWIDTH 479 0
DWIDTH 8 0
BBX 6 8 1 2
BITMAP
84
48
48
30
30
48
48
84
ENDCHAR

STARTCHAR Oslash
ENCODING 216
SWIDTH 638 0
DWIDTH 11 0
BBX 9 12 1 0
BITMAP
1C80
6300
4300
8480
8480
8880
8880
9080
9080
6100
6300
9C00
ENDCHAR

STARTCHAR Ugrave
ENCODING 217
SWIDTH 592 0
DWIDTH 10 0
BBX 8 15 1 0
BITMAP
10
08
00
81
81
81
81
81
81
81
81
81
81
42
3C
ENDCHAR

STARTCHAR Uacute
ENCODING 218
SWIDTH 592 0
DWIDTH 10 0
BBX 8 15 1 0
BITMAP
08
10
00
81
81
81
81
81
81
81
81
81
81
42
3C
ENDCHAR

STARTCHAR Ucircumflex
ENCODING 219
SWIDTH 592 0
DWIDTH 10 0
BBX 8 15 1 0
BITMAP
18
24
00
81
81
81
81
81
81
81
81
81
81
42
3C
ENDCHAR

STARTCHAR Udieresis
ENCODING 220
SWIDTH 592 0
DWIDTH 10 0
BBX 8 15 1 0
BITMAP
24
24
00
81
81
81
81
81
81
81
81
81
81
42
3C
ENDCHAR

STARTCHAR Idotaccent
ENCODING 221
SWIDTH 228 0
DWIDTH 5 0
BBX 1 15 2 0
BITMAP
80
80
00
80
80
80
80
80
80
80
80
80
80
80
80
ENDCHAR

STARTCHAR Scedilla
ENCODING 222
SWIDTH 547 0
DWIDTH 9 0
BBX 7 16 1 -4
BITMAP
38
44
82
80
40
30
0C
02
82
82
44
38
30
08
08
30
ENDCHAR

STARTCHAR germandbls
ENCODING 223
SWIDTH 501 0
DWIDTH 9 0
BBX 7 12 1 0
BITMAP
70
88
88
88
90
90
88
84
82
82
A2
9C
ENDCHAR

STARTCHAR agrave
ENCODING 224
SWIDTH 456 0
DWIDTH 8 0
BBX 7 12 1 0
BITMAP
20
10
00
78
84
84
04
7C
84
84
8C
76
ENDCHAR

STARTCHAR aacute
ENCODING 225
SWIDTH 456 0
DWIDTH 8 0
BBX 7 12 1 0
BITMAP
10
20
00
78
84
84
04
7C
84
84
8C
76
ENDCHAR

STARTCHAR acircumflex
ENCODING 226
SWIDTH 456 0
DWIDTH 8 0
BBX 7 12 1 0
BITMAP
30
48
00
78
84
84
04
7C
84
84
8C
76
ENDCHAR

STARTCHAR atilde
ENCODING 227
SWIDTH 456 0
DWIDTH 8 0
BBX 7 12 1 0
BITMAP
34
58
00
78
84
84
04
7C
84
84
8C
76
ENDCHAR

STARTCHAR adieresis
ENCODING 228
SWIDTH 456 0
DWIDTH 8 0
BBX 7 12 1 0
BITMAP
48
48
00
78
84
84
04
7C
84
84
8C
76
ENDCHAR

STARTCHAR aring
ENCODING 229
SWIDTH 456 0
DWIDTH 8 0
BBX 7 14 1 0
BITMAP
10
28
28
10
00
78
84
84
04
7C
84
84
8C
76
ENDCHAR

STARTCHAR ae
ENCODING 230
SWIDTH 729 0
DWIDTH 13 0
BBX 11 9 1 0
BITMAP
79C0
8620
8420
0420
7FE0
8400
8420
8A20
71C0
ENDCHAR

STARTCHAR ccedilla
ENCODING 231
SWIDTH 410 0
DWIDTH 7 0
BBX 5 13 1 -4
BITMAP
70
88
88
80
80
80
88
88
70
60
10
10
60
ENDCHAR

STARTCHAR egrave
ENCODING 232
SWIDTH 456 0
DWIDTH 8 0
BBX 6 12 1 0
BITMAP
20
10
00
78
84
84
84
FC
80
84
84
78
ENDCHAR

STARTCHAR eacute
ENCODING 233
SWIDTH 456 0
DWIDTH 8 0
BBX 6 12 1 0
BITMAP
10
20
00
78
84
84
84
FC
80
84
84
78
ENDCHAR

STARTCHAR ecircumflex
ENCODING 234
SWIDTH 456 0
DWIDTH 8 0
BBX 6 12 1 0
BITMAP
30
48
00
78
84
84
84
FC
80
84
84
78
ENDCHAR

STARTCHAR edieresis
ENCODING 235
SWIDTH 456 0
DWIDTH 8 0
BBX 6 12 1 0
BITMAP
48
48
00
78
84
84
84
FC
80
84
84
78
ENDCHAR

STARTCHAR igrave
ENCODING 236
SWIDTH 228 0
DWIDTH 3 0
BBX 2 12 0 0
BITMAP
80
40
00
40
40
40
40
40
40
40
40
40
ENDCHAR

STARTCHAR iacute
ENCODING 237
SWIDTH 228 0
DWIDTH 3 0
BBX 2 12 1 0
BITMAP
40
80
00
80
80
80
80
80
80
80
80
80
ENDCHAR

STARTCHAR icircumflex
ENCODING 238
SWIDTH 228 0
DWIDTH 3 0
BBX 4 12 0 0
BITMAP
60
90
00
40
40
40
40
40
40
40
40
40
ENDCHAR

STARTCHAR idieresis
ENCODING 239
SWIDTH 228 0
DWIDTH 3 0
BBX 3 12 0 0
BITMAP
A0
A0
00
40
40
40
40
40
40
40
40
40
ENDCHAR

STARTCHAR gbreve
ENCODING 240
SWIDTH 456 0
DWIDTH 8 0
BBX 6 15 1 -3
BITMAP
48
30
00
74
8C
84
84
84
84
84
8C
74
04
84
78
ENDCHAR

STARTCHAR ntilde
ENCODING 241
SWIDTH 456 0
DWIDTH 8 0
BBX 6 12 1 0
BITMAP
34
58
00
B8
C4
84
84
84
84
84
84
84
ENDCHAR

STARTCHAR ograve
ENCODING 242
SWIDTH 456 0
DWIDTH 8 0
BBX 6 12 1 0
BITMAP
20
10
00
78
84
84
84
84
84
84
84
78
ENDCHAR

STARTCHAR oacute
ENCODING 243
SWIDTH 456 0
DWIDTH 8 0
BBX 6 12 1 0
BITMAP
10
20
00
78
84
84
84
84
84
84
84
78
ENDCHAR

STARTCHAR ocircumflex
ENCODING 244
SWIDTH 456 0
DWIDTH 8 0
BBX 6 12 1 0
BITMAP
30
48
00
78
84
84
84
84
84
84
84
78
ENDCHAR

STARTCHAR otilde
ENCODING 245
SWIDTH 456 0
DWIDTH 8 0
BBX 6 12 1 0
BITMAP
34
58
00
78
84
84
84
84
84
84
84
78
ENDCHAR

STARTCHAR odieresis
ENCODING 246
SWIDTH 456 0
DWIDTH 8 0
BBX 6 12 1 0
BITMAP
48
48
00
78
84
84
84
84
84
84
84
78
ENDCHAR

STARTCHAR divide
ENCODING 247
SWIDTH 479 0
DWIDTH 8 0
BBX 7 7 1 2
BITMAP
10
10
00
FE
00
10
10
ENDCHAR

STARTCHAR oslash
ENCODING 248
SWIDTH 501 0
DWIDTH 8 0
BBX 6 9 1 0
BITMAP
7C
8C
8C
94
94
A4
A4
C4
F8
ENDCHAR

STARTCHAR ugrave
ENCODING 249
SWIDTH 456 0
DWIDTH 8 0
BBX 6 12 1 0
BITMAP
20
10
00
84
84
84
84
84
84
84
8C
74
ENDCHAR

STARTCHAR uacute
ENCODING 250
SWIDTH 456 0
DWIDTH 8 0
BBX 6 12 1 0
BITMAP
10
20
00
84
84
84
84
84
84
84
8C
74
ENDCHAR

STARTCHAR ucircumflex
ENCODING 251
SWIDTH 456 0
DWIDTH 8 0
BBX 6 12 1 0
BITMAP
30
48
00
84
84
84
84
84
84
84
8C
74
ENDCHAR

STARTCHAR udieresis
ENCODING 252
SWIDTH 456 0
DWIDTH 8 0
BBX 6 12 1 0
BITMAP
48
48
00
84
84
84
84
84
84
84
8C
74
ENDCHAR

STARTCHAR dotlessi
ENCODING 253
SWIDTH 228 0
DWIDTH 3 0
BBX 1 9 1 0
BITMAP
80
80
80
80
80
80
80
80
80
ENDCHAR

STARTCHAR scedilla
ENCODING 254
SWIDTH 410 0
DWIDTH 7 0
BBX 5 13 1 -4
BITMAP
70
88
88
80
70
08
88
88
70
60
10
10
60
ENDCHAR

STARTCHAR ydieresis
ENCODING 255
SWIDTH 410 0
DWIDTH 7 0
BBX 7 15 0 -3
BITMAP
24
24
00
82
82
44
44
44
28
28
30
10
20
20
C0
ENDCHAR
ENDFONT
